<svg width="300" height="80" viewBox="0 0 300 80" fill="none" xmlns="http://www.w3.org/2000/svg">
<rect width="300" height="80" fill="white"/>
<path d="M237.479 49V35.9091H239.942V37.9886H240.078C240.317 37.2841 240.737 36.7301 241.339 36.3267C241.942 35.9176 242.629 35.7131 243.402 35.7131C243.76 35.7131 244.081 35.7557 244.365 35.8409C244.649 35.9261 244.899 36.0426 245.115 36.1903L244.297 38.321C244.143 38.2472 243.97 38.1875 243.777 38.142C243.584 38.0909 243.362 38.0653 243.112 38.0653C242.521 38.0653 241.993 38.1932 241.527 38.4489C241.067 38.6989 240.7 39.0455 240.428 39.4886C240.161 39.9318 240.027 40.4375 240.027 41.0057V49H237.479Z" fill="#1A1A1A"/>
<path d="M229.035 49.2642C227.745 49.2642 226.634 48.9886 225.702 48.4375C224.776 47.8807 224.06 47.0994 223.555 46.0938C223.055 45.0824 222.805 43.8977 222.805 42.5398C222.805 41.1989 223.055 40.017 223.555 38.9943C224.06 37.9716 224.765 37.1733 225.668 36.5994C226.577 36.0256 227.64 35.7386 228.856 35.7386C229.594 35.7386 230.31 35.8608 231.004 36.1051C231.697 36.3494 232.319 36.733 232.87 37.2557C233.421 37.7784 233.856 38.4574 234.174 39.2926C234.492 40.1222 234.651 41.1307 234.651 42.3182V43.2216H224.245V41.3125H232.154C232.154 40.642 232.018 40.0483 231.745 39.5312C231.472 39.0085 231.089 38.5966 230.594 38.2955C230.106 37.9943 229.532 37.8438 228.873 37.8438C228.157 37.8438 227.532 38.0199 226.998 38.3722C226.469 38.7188 226.06 39.1733 225.771 39.7358C225.487 40.2926 225.344 40.8977 225.344 41.5511V43.0426C225.344 43.9176 225.498 44.6619 225.805 45.2756C226.117 45.8892 226.552 46.358 227.109 46.6818C227.665 47 228.316 47.1591 229.06 47.1591C229.543 47.1591 229.984 47.0909 230.381 46.9545C230.779 46.8125 231.123 46.6023 231.413 46.3239C231.702 46.0455 231.924 45.7017 232.077 45.2926L234.489 45.7273C234.296 46.4375 233.95 47.0597 233.45 47.5938C232.955 48.1222 232.333 48.5341 231.583 48.8295C230.839 49.1193 229.989 49.2642 229.035 49.2642Z" fill="#1A1A1A"/>
<path d="M211.504 41.2273V49H208.955V31.5455H211.469V38.0398H211.631C211.938 37.3352 212.407 36.7756 213.038 36.3608C213.668 35.946 214.492 35.7386 215.509 35.7386C216.407 35.7386 217.191 35.9233 217.862 36.2926C218.538 36.6619 219.06 37.2131 219.43 37.946C219.805 38.6733 219.992 39.5824 219.992 40.6733V49H217.444V40.9801C217.444 40.0199 217.197 39.2756 216.702 38.7472C216.208 38.2131 215.521 37.946 214.64 37.946C214.038 37.946 213.498 38.0739 213.021 38.3295C212.549 38.5852 212.177 38.9602 211.904 39.4545C211.637 39.9432 211.504 40.5341 211.504 41.2273Z" fill="#1A1A1A"/>
<path d="M205.898 39.1051L203.588 39.5142C203.491 39.2187 203.338 38.9375 203.128 38.6705C202.923 38.4034 202.645 38.1847 202.293 38.0142C201.94 37.8437 201.5 37.7585 200.972 37.7585C200.25 37.7585 199.648 37.9205 199.165 38.2443C198.682 38.5625 198.44 38.9744 198.44 39.4801C198.44 39.9176 198.602 40.2699 198.926 40.5369C199.25 40.804 199.773 41.0227 200.494 41.1932L202.574 41.6705C203.778 41.9489 204.676 42.3778 205.267 42.9574C205.858 43.5369 206.153 44.2898 206.153 45.2159C206.153 46 205.926 46.6989 205.472 47.3125C205.023 47.9205 204.395 48.3977 203.588 48.7443C202.787 49.0909 201.858 49.2642 200.801 49.2642C199.335 49.2642 198.139 48.9517 197.213 48.3267C196.287 47.696 195.719 46.8011 195.509 45.642L197.972 45.267C198.125 45.9091 198.44 46.3949 198.918 46.7244C199.395 47.0483 200.017 47.2102 200.784 47.2102C201.619 47.2102 202.287 47.0369 202.787 46.6903C203.287 46.3381 203.537 45.9091 203.537 45.4034C203.537 44.9943 203.384 44.6506 203.077 44.3722C202.776 44.0938 202.313 43.8835 201.688 43.7415L199.472 43.2557C198.25 42.9773 197.347 42.5341 196.761 41.9261C196.182 41.3182 195.892 40.5483 195.892 39.6165C195.892 38.8437 196.108 38.1676 196.54 37.5881C196.972 37.0085 197.568 36.5568 198.33 36.233C199.091 35.9034 199.963 35.7386 200.946 35.7386C202.361 35.7386 203.474 36.0455 204.287 36.6591C205.099 37.267 205.636 38.0824 205.898 39.1051Z" fill="#1A1A1A"/>
<path d="M190.112 49V35.9091H192.66V49H190.112ZM191.398 33.8892C190.955 33.8892 190.575 33.7415 190.256 33.446C189.944 33.1449 189.788 32.7869 189.788 32.3722C189.788 31.9517 189.944 31.5937 190.256 31.2983C190.575 30.9972 190.955 30.8466 191.398 30.8466C191.842 30.8466 192.219 30.9972 192.532 31.2983C192.85 31.5937 193.009 31.9517 193.009 32.3722C193.009 32.7869 192.85 33.1449 192.532 33.446C192.219 33.7415 191.842 33.8892 191.398 33.8892Z" fill="#1A1A1A"/>
<path d="M183.572 31.5455H186.121V45.4205C186.121 45.983 186.192 46.3807 186.334 46.6136C186.482 46.8466 186.76 46.9574 187.169 46.946C187.391 46.9403 187.555 46.9261 187.663 46.9034C187.777 46.8807 187.879 46.8551 187.97 46.8267L188.43 48.8636C188.254 48.9148 188.03 48.9631 187.757 49.0085C187.49 49.0597 187.186 49.0881 186.845 49.0938C185.743 49.1108 184.922 48.8494 184.382 48.3097C183.842 47.7699 183.572 46.983 183.572 45.9489V31.5455Z" fill="#1A1A1A"/>
<path d="M168.754 49V31.5455H171.302V38.0312H171.455C171.603 37.7585 171.816 37.4432 172.094 37.0852C172.373 36.7273 172.759 36.4148 173.254 36.1477C173.748 35.875 174.401 35.7386 175.214 35.7386C176.271 35.7386 177.214 36.0057 178.043 36.5398C178.873 37.0739 179.523 37.8438 179.995 38.8494C180.472 39.8551 180.711 41.0653 180.711 42.4801C180.711 43.8949 180.475 45.108 180.004 46.1193C179.532 47.125 178.884 47.9006 178.06 48.446C177.236 48.9858 176.296 49.2557 175.239 49.2557C174.444 49.2557 173.793 49.1222 173.288 48.8551C172.788 48.5881 172.396 48.2756 172.111 47.9176C171.827 47.5597 171.609 47.2415 171.455 46.9631H171.242V49H168.754ZM171.251 42.4545C171.251 43.375 171.384 44.1818 171.651 44.875C171.918 45.5682 172.305 46.1108 172.81 46.5028C173.316 46.8892 173.935 47.0824 174.668 47.0824C175.43 47.0824 176.066 46.8807 176.577 46.4773C177.089 46.0682 177.475 45.5142 177.736 44.8153C178.004 44.1165 178.137 43.3295 178.137 42.4545C178.137 41.5909 178.006 40.8153 177.745 40.1278C177.489 39.4403 177.103 38.8977 176.586 38.5C176.075 38.1023 175.435 37.9034 174.668 37.9034C173.93 37.9034 173.305 38.0938 172.793 38.4744C172.288 38.8551 171.904 39.3864 171.643 40.0682C171.381 40.75 171.251 41.5455 171.251 42.4545Z" fill="#1A1A1A"/>
<path d="M162.568 43.571V35.9091H165.125V49H162.619V46.733H162.483C162.182 47.4318 161.699 48.0142 161.034 48.4801C160.375 48.9403 159.554 49.1705 158.571 49.1705C157.73 49.1705 156.986 48.9858 156.338 48.6165C155.696 48.2415 155.19 47.6875 154.821 46.9545C154.457 46.2216 154.276 45.3153 154.276 44.2358V35.9091H156.824V43.929C156.824 44.821 157.071 45.5312 157.565 46.0597C158.06 46.5881 158.702 46.8523 159.491 46.8523C159.969 46.8523 160.443 46.733 160.915 46.4943C161.392 46.2557 161.787 45.8949 162.099 45.4119C162.418 44.929 162.574 44.3153 162.568 43.571Z" fill="#1A1A1A"/>
<path d="M139.129 49V31.5455H145.35C146.708 31.5455 147.833 31.7926 148.725 32.2869C149.617 32.7812 150.285 33.4574 150.728 34.3153C151.171 35.1676 151.393 36.1278 151.393 37.196C151.393 38.2699 151.168 39.2358 150.719 40.0938C150.276 40.946 149.606 41.6222 148.708 42.1222C147.816 42.6165 146.694 42.8636 145.342 42.8636H141.063V40.6307H145.103C145.961 40.6307 146.657 40.483 147.191 40.1875C147.725 39.8864 148.117 39.4773 148.367 38.9602C148.617 38.4432 148.742 37.8551 148.742 37.196C148.742 36.5369 148.617 35.9517 148.367 35.4403C148.117 34.929 147.722 34.5284 147.183 34.2386C146.648 33.9489 145.944 33.804 145.069 33.804H141.762V49H139.129Z" fill="#1A1A1A"/>
<path d="M126.941 53.9091C126.56 53.9091 126.214 53.8778 125.901 53.8153C125.589 53.7585 125.356 53.696 125.202 53.6278L125.816 51.5398C126.282 51.6648 126.697 51.7187 127.06 51.7017C127.424 51.6847 127.745 51.5483 128.023 51.2926C128.308 51.0369 128.558 50.6193 128.773 50.0398L129.089 49.1705L124.299 35.9091H127.026L130.342 46.0682H130.478L133.793 35.9091H136.529L131.134 50.7472C130.884 51.429 130.566 52.0057 130.18 52.4773C129.793 52.9545 129.333 53.3125 128.799 53.5511C128.265 53.7898 127.646 53.9091 126.941 53.9091Z" fill="#1A1A1A"/>
<path d="M122.273 39.1051L119.963 39.5142C119.866 39.2187 119.713 38.9375 119.503 38.6705C119.298 38.4034 119.02 38.1847 118.668 38.0142C118.315 37.8437 117.875 37.7585 117.347 37.7585C116.625 37.7585 116.023 37.9205 115.54 38.2443C115.057 38.5625 114.815 38.9744 114.815 39.4801C114.815 39.9176 114.977 40.2699 115.301 40.5369C115.625 40.804 116.148 41.0227 116.869 41.1932L118.949 41.6705C120.153 41.9489 121.051 42.3778 121.642 42.9574C122.233 43.5369 122.528 44.2898 122.528 45.2159C122.528 46 122.301 46.6989 121.847 47.3125C121.398 47.9205 120.77 48.3977 119.963 48.7443C119.162 49.0909 118.233 49.2642 117.176 49.2642C115.71 49.2642 114.514 48.9517 113.588 48.3267C112.662 47.696 112.094 46.8011 111.884 45.642L114.347 45.267C114.5 45.9091 114.815 46.3949 115.293 46.7244C115.77 47.0483 116.392 47.2102 117.159 47.2102C117.994 47.2102 118.662 47.0369 119.162 46.6903C119.662 46.3381 119.912 45.9091 119.912 45.4034C119.912 44.9943 119.759 44.6506 119.452 44.3722C119.151 44.0938 118.687 43.8835 118.062 43.7415L115.847 43.2557C114.625 42.9773 113.722 42.5341 113.136 41.9261C112.557 41.3182 112.267 40.5483 112.267 39.6165C112.267 38.8437 112.483 38.1676 112.915 37.5881C113.347 37.0085 113.943 36.5568 114.705 36.233C115.466 35.9034 116.338 35.7386 117.321 35.7386C118.736 35.7386 119.849 36.0455 120.662 36.6591C121.474 37.267 122.011 38.0824 122.273 39.1051Z" fill="#1A1A1A"/>
<path d="M102.609 49.2898C101.779 49.2898 101.029 49.1364 100.359 48.8295C99.6882 48.517 99.157 48.0653 98.7649 47.4744C98.3785 46.8835 98.1854 46.1591 98.1854 45.3011C98.1854 44.5625 98.3274 43.9545 98.6115 43.4773C98.8956 43 99.2791 42.6222 99.7621 42.3438C100.245 42.0653 100.785 41.8551 101.381 41.7131C101.978 41.571 102.586 41.4631 103.205 41.3892C103.989 41.2983 104.626 41.2244 105.114 41.1676C105.603 41.1051 105.958 41.0057 106.18 40.8693C106.401 40.733 106.512 40.5114 106.512 40.2045V40.1449C106.512 39.4006 106.302 38.8239 105.881 38.4148C105.467 38.0057 104.847 37.8011 104.023 37.8011C103.165 37.8011 102.489 37.9915 101.995 38.3722C101.506 38.7472 101.168 39.1648 100.981 39.625L98.5859 39.0795C98.87 38.2841 99.2848 37.642 99.8302 37.1534C100.381 36.6591 101.015 36.3011 101.731 36.0795C102.447 35.8523 103.2 35.7386 103.989 35.7386C104.512 35.7386 105.066 35.8011 105.651 35.9261C106.242 36.0455 106.793 36.267 107.305 36.5909C107.822 36.9148 108.245 37.3778 108.575 37.9801C108.904 38.5767 109.069 39.3523 109.069 40.3068V49H106.58V47.2102H106.478C106.313 47.5398 106.066 47.8636 105.736 48.1818C105.407 48.5 104.984 48.7642 104.467 48.9744C103.95 49.1847 103.33 49.2898 102.609 49.2898ZM103.163 47.2443C103.867 47.2443 104.469 47.1051 104.969 46.8267C105.475 46.5483 105.859 46.1847 106.12 45.7358C106.387 45.2813 106.521 44.7955 106.521 44.2784V42.5909C106.43 42.6818 106.254 42.767 105.992 42.8466C105.737 42.9205 105.444 42.9858 105.114 43.0426C104.785 43.0938 104.464 43.142 104.151 43.1875C103.839 43.2273 103.577 43.2614 103.367 43.2898C102.873 43.3523 102.421 43.4574 102.012 43.6051C101.609 43.7528 101.285 43.9659 101.04 44.2443C100.802 44.517 100.683 44.8807 100.683 45.3352C100.683 45.9659 100.915 46.4432 101.381 46.767C101.847 47.0852 102.441 47.2443 103.163 47.2443Z" fill="#1A1A1A"/>
<path d="M90.3551 49.2642C89.0653 49.2642 87.9545 48.9886 87.0227 48.4375C86.0966 47.8807 85.3807 47.0994 84.875 46.0938C84.375 45.0824 84.125 43.8977 84.125 42.5398C84.125 41.1989 84.375 40.017 84.875 38.9943C85.3807 37.9716 86.0852 37.1733 86.9886 36.5994C87.8977 36.0256 88.9602 35.7386 90.1761 35.7386C90.9148 35.7386 91.6307 35.8608 92.3239 36.1051C93.017 36.3494 93.6392 36.733 94.1903 37.2557C94.7415 37.7784 95.1761 38.4574 95.4943 39.2926C95.8125 40.1222 95.9716 41.1307 95.9716 42.3182V43.2216H85.5653V41.3125H93.4744C93.4744 40.642 93.3381 40.0483 93.0653 39.5312C92.7926 39.0085 92.4091 38.5966 91.9148 38.2955C91.4261 37.9943 90.8523 37.8438 90.1932 37.8438C89.4773 37.8438 88.8523 38.0199 88.3182 38.3722C87.7898 38.7188 87.3807 39.1733 87.0909 39.7358C86.8068 40.2926 86.6648 40.8977 86.6648 41.5511V43.0426C86.6648 43.9176 86.8182 44.6619 87.125 45.2756C87.4375 45.8892 87.8722 46.358 88.429 46.6818C88.9858 47 89.6364 47.1591 90.3807 47.1591C90.8636 47.1591 91.304 47.0909 91.7017 46.9545C92.0994 46.8125 92.4432 46.6023 92.733 46.3239C93.0227 46.0455 93.2443 45.7017 93.3977 45.2926L95.8097 45.7273C95.6165 46.4375 95.2699 47.0597 94.7699 47.5938C94.2756 48.1222 93.6534 48.5341 92.9034 48.8295C92.1591 49.1193 91.3097 49.2642 90.3551 49.2642Z" fill="#1A1A1A"/>
<path d="M64 52C58.4771 52 54 47.5228 54 42C54 36.4771 58.4771 32 64 32C69.5228 32 74 36.4771 74 42C74 47.5228 69.5228 52 64 52ZM68.8201 47.0761C70.1628 45.8007 71 43.9981 71 42C71 38.134 67.866 35 64 35C62.9391 35 61.9334 35.236 61.0324 35.6583L62.0072 37.4129C62.6177 37.1473 63.2917 37 64 37C66.7614 37 69 39.2386 69 42H66L68.8201 47.0761ZM66.9676 48.3417L65.9928 46.5871C65.3823 46.8527 64.7083 47 64 47C61.2386 47 59 44.7614 59 42H62L59.1799 36.9239C57.8372 38.1993 57 40.0019 57 42C57 45.866 60.134 49 64 49C65.0609 49 66.0666 48.764 66.9676 48.3417Z" fill="#0055CC"/>
</svg>
