<svg width="300" height="50" viewBox="0 0 300 50" fill="none" xmlns="http://www.w3.org/2000/svg">
<path d="M288.013 35.496V14.9468H291.879V18.2111H292.093C292.468 17.1052 293.128 16.2356 294.073 15.6023C295.019 14.9602 296.098 14.6391 297.311 14.6391C297.873 14.6391 298.377 14.706 298.823 14.8398C299.269 14.9735 299.661 15.1564 300 15.3883L298.716 18.7329C298.475 18.6169 298.203 18.5233 297.9 18.4519C297.596 18.3717 297.248 18.3315 296.856 18.3315C295.928 18.3315 295.099 18.5322 294.368 18.9336C293.645 19.326 293.07 19.87 292.642 20.5657C292.223 21.2614 292.013 22.0552 292.013 22.9471V35.496H288.013Z" fill="#1A1A1A"/>
<path d="M274.758 35.9108C272.734 35.9108 270.99 35.4782 269.527 34.6131C268.074 33.739 266.95 32.5127 266.156 30.934C265.371 29.3464 264.979 27.4868 264.979 25.3552C264.979 23.2503 265.371 21.3952 266.156 19.7898C266.95 18.1844 268.056 16.9313 269.474 16.0304C270.901 15.1296 272.569 14.6792 274.477 14.6792C275.637 14.6792 276.761 14.871 277.849 15.2545C278.937 15.638 279.913 16.24 280.779 17.0606C281.644 17.8811 282.326 18.9469 282.825 20.258C283.325 21.5602 283.575 23.1433 283.575 25.0074V26.4255H267.24V23.4287H279.655C279.655 22.3763 279.441 21.4442 279.013 20.6326C278.584 19.8121 277.982 19.1654 277.207 18.6927C276.439 18.22 275.539 17.9837 274.504 17.9837C273.38 17.9837 272.399 18.2602 271.561 18.8131C270.731 19.3572 270.089 20.0707 269.634 20.9537C269.188 21.8278 268.965 22.7776 268.965 23.8033V26.1445C268.965 27.518 269.206 28.6864 269.688 29.6497C270.178 30.6129 270.861 31.3487 271.735 31.8571C272.609 32.3566 273.63 32.6063 274.798 32.6063C275.557 32.6063 276.248 32.4993 276.872 32.2852C277.496 32.0622 278.036 31.7322 278.491 31.2952C278.946 30.8582 279.294 30.3186 279.534 29.6764L283.32 30.3587C283.017 31.4736 282.473 32.4502 281.688 33.2886C280.912 34.1181 279.936 34.7647 278.758 35.2285C277.59 35.6833 276.257 35.9108 274.758 35.9108Z" fill="#1A1A1A"/>
<path d="M247.239 23.2949V35.496H243.239V8.09703H247.185V18.2914H247.44C247.921 17.1854 248.657 16.3069 249.647 15.6558C250.637 15.0048 251.93 14.6792 253.527 14.6792C254.936 14.6792 256.167 14.9691 257.219 15.5488C258.281 16.1285 259.101 16.9937 259.681 18.1442C260.269 19.2859 260.564 20.7129 260.564 22.4253V35.496H256.564V22.9069C256.564 21.3996 256.176 20.2313 255.4 19.4018C254.624 18.5634 253.545 18.1442 252.162 18.1442C251.217 18.1442 250.369 18.3449 249.62 18.7463C248.88 19.1476 248.296 19.7363 247.868 20.5122C247.448 21.2792 247.239 22.2068 247.239 23.2949Z" fill="#1A1A1A"/>
<path d="M238.439 19.9637L234.814 20.6059C234.662 20.1421 234.421 19.7006 234.091 19.2814C233.77 18.8622 233.333 18.5188 232.78 18.2513C232.227 17.9837 231.536 17.8499 230.706 17.8499C229.574 17.8499 228.628 18.1041 227.87 18.6125C227.112 19.1119 226.733 19.7586 226.733 20.5523C226.733 21.2391 226.987 21.7921 227.496 22.2113C228.004 22.6305 228.825 22.9738 229.957 23.2414L233.222 23.9906C235.112 24.4276 236.522 25.101 237.449 26.0107C238.377 26.9205 238.841 28.1022 238.841 29.556C238.841 30.7868 238.484 31.8839 237.77 32.8471C237.066 33.8014 236.08 34.5506 234.814 35.0947C233.556 35.6387 232.098 35.9108 230.439 35.9108C228.138 35.9108 226.26 35.4202 224.807 34.4391C223.353 33.4491 222.461 32.0444 222.131 30.2249L225.997 29.6363C226.238 30.6441 226.733 31.4067 227.482 31.924C228.231 32.4324 229.208 32.6866 230.412 32.6866C231.723 32.6866 232.771 32.4145 233.556 31.8705C234.341 31.3175 234.733 30.6441 234.733 29.8504C234.733 29.2082 234.493 28.6686 234.011 28.2316C233.538 27.7945 232.811 27.4645 231.83 27.2416L228.352 26.479C226.434 26.042 225.016 25.3463 224.097 24.392C223.188 23.4376 222.733 22.2291 222.733 20.7664C222.733 19.5534 223.072 18.4921 223.75 17.5823C224.427 16.6726 225.364 15.9635 226.559 15.4552C227.754 14.9379 229.123 14.6792 230.666 14.6792C232.887 14.6792 234.635 15.1608 235.911 16.1241C237.186 17.0784 238.029 18.3583 238.439 19.9637Z" fill="#1A1A1A"/>
<path d="M213.659 35.496V14.9468H217.659V35.496H213.659ZM215.679 11.7761C214.983 11.7761 214.386 11.5442 213.886 11.0804C213.396 10.6077 213.151 10.0458 213.151 9.39474C213.151 8.73474 213.396 8.17284 213.886 7.70906C214.386 7.23635 214.983 7 215.679 7C216.375 7 216.968 7.23635 217.458 7.70906C217.958 8.17284 218.208 8.73474 218.208 9.39474C218.208 10.0458 217.958 10.6077 217.458 11.0804C216.968 11.5442 216.375 11.7761 215.679 11.7761Z" fill="#1A1A1A"/>
<path d="M203.394 8.09703H207.395V29.8771C207.395 30.7601 207.506 31.3844 207.729 31.7501C207.961 32.1158 208.398 32.2897 209.04 32.2718C209.388 32.2629 209.647 32.2406 209.816 32.205C209.994 32.1693 210.155 32.1291 210.298 32.0845L211.02 35.282C210.744 35.3623 210.391 35.4381 209.963 35.5094C209.544 35.5897 209.067 35.6343 208.532 35.6432C206.801 35.67 205.513 35.2597 204.665 34.4124C203.818 33.5651 203.394 32.3298 203.394 30.7066V8.09703Z" fill="#1A1A1A"/>
<path d="M180.133 35.496V8.09703H184.133V18.278H184.374C184.606 17.8499 184.94 17.3549 185.377 16.793C185.814 16.2311 186.421 15.7406 187.196 15.3214C187.972 14.8933 188.998 14.6792 190.274 14.6792C191.932 14.6792 193.413 15.0984 194.715 15.9368C196.017 16.7752 197.039 17.9837 197.779 19.5623C198.528 21.141 198.903 23.0407 198.903 25.2616C198.903 27.4824 198.532 29.3866 197.792 30.9741C197.052 32.5528 196.035 33.7702 194.742 34.6264C193.449 35.4737 191.973 35.8974 190.314 35.8974C189.065 35.8974 188.044 35.6878 187.25 35.2686C186.465 34.8494 185.85 34.3589 185.404 33.797C184.958 33.2351 184.614 32.7356 184.374 32.2986H184.039V35.496H180.133ZM184.053 25.2214C184.053 26.6663 184.262 27.9328 184.681 29.0209C185.101 30.109 185.707 30.9608 186.501 31.5762C187.295 32.1827 188.267 32.4859 189.417 32.4859C190.612 32.4859 191.611 32.1693 192.414 31.536C193.217 30.8939 193.823 30.0243 194.234 28.9272C194.653 27.8302 194.862 26.5949 194.862 25.2214C194.862 23.8657 194.657 22.6483 194.247 21.5691C193.846 20.4899 193.239 19.6382 192.427 19.0138C191.625 18.3895 190.621 18.0773 189.417 18.0773C188.258 18.0773 187.277 18.3761 186.474 18.9737C185.68 19.5713 185.078 20.4052 184.668 21.4755C184.258 22.5457 184.053 23.7944 184.053 25.2214Z" fill="#1A1A1A"/>
<path d="M170.423 26.974V14.9468H174.437V35.496H170.504V31.9374H170.289C169.817 33.0344 169.059 33.9486 168.015 34.68C166.981 35.4024 165.692 35.7636 164.149 35.7636C162.829 35.7636 161.66 35.4737 160.644 34.894C159.636 34.3054 158.842 33.4358 158.262 32.2852C157.691 31.1347 157.406 29.7121 157.406 28.0175V14.9468H161.406V27.5359C161.406 28.9362 161.794 30.051 162.57 30.8805C163.346 31.7099 164.354 32.1247 165.594 32.1247C166.343 32.1247 167.088 31.9374 167.828 31.5628C168.577 31.1882 169.197 30.6218 169.687 29.8637C170.187 29.1056 170.432 28.1424 170.423 26.974Z" fill="#1A1A1A"/>
<path d="M133.629 35.496V8.09703H143.396C145.527 8.09703 147.293 8.48501 148.693 9.26095C150.094 10.0369 151.142 11.0983 151.837 12.445C152.533 13.7829 152.881 15.2902 152.881 16.9669C152.881 18.6526 152.529 20.1688 151.824 21.5156C151.128 22.8534 150.076 23.9148 148.667 24.6997C147.266 25.4756 145.505 25.8636 143.382 25.8636H136.666V22.3584H143.008C144.354 22.3584 145.447 22.1265 146.285 21.6628C147.124 21.19 147.739 20.5479 148.131 19.7363C148.524 18.9246 148.72 18.0015 148.72 16.9669C148.72 15.9323 148.524 15.0137 148.131 14.211C147.739 13.4083 147.119 12.7795 146.272 12.3246C145.433 11.8697 144.328 11.6423 142.954 11.6423H137.763V35.496H133.629Z" fill="#1A1A1A"/>
<path d="M114.498 43.202C113.901 43.202 113.357 43.153 112.866 43.0548C112.375 42.9657 112.01 42.8676 111.769 42.7605L112.732 39.4828C113.464 39.679 114.115 39.7638 114.685 39.737C115.256 39.7102 115.76 39.4962 116.197 39.0948C116.643 38.6935 117.036 38.0379 117.374 37.1282L117.87 35.7636L110.351 14.9468H114.632L119.836 30.8939H120.05L125.254 14.9468H129.549L121.08 38.2386C120.688 39.3089 120.188 40.2142 119.582 40.9544C118.975 41.7036 118.253 42.2655 117.415 42.6401C116.576 43.0147 115.604 43.202 114.498 43.202Z" fill="#1A1A1A"/>
<path d="M107.17 19.9637L103.545 20.6059C103.393 20.1421 103.152 19.7006 102.822 19.2814C102.501 18.8622 102.064 18.5188 101.511 18.2513C100.958 17.9837 100.267 17.8499 99.4374 17.8499C98.3047 17.8499 97.3592 18.1041 96.6011 18.6125C95.843 19.1119 95.464 19.7586 95.464 20.5523C95.464 21.2391 95.7182 21.7921 96.2265 22.2113C96.7349 22.6305 97.5555 22.9738 98.6882 23.2414L101.952 23.9906C103.843 24.4276 105.253 25.101 106.18 26.0107C107.108 26.9205 107.571 28.1022 107.571 29.556C107.571 30.7868 107.215 31.8839 106.501 32.8471C105.797 33.8014 104.811 34.5506 103.545 35.0947C102.287 35.6387 100.829 35.9108 99.1698 35.9108C96.8687 35.9108 94.9913 35.4202 93.5375 34.4391C92.0837 33.4491 91.1918 32.0444 90.8618 30.2249L94.7281 29.6363C94.969 30.6441 95.464 31.4067 96.2132 31.924C96.9623 32.4324 97.939 32.6866 99.143 32.6866C100.454 32.6866 101.502 32.4145 102.287 31.8705C103.072 31.3175 103.464 30.6441 103.464 29.8504C103.464 29.2082 103.223 28.6686 102.742 28.2316C102.269 27.7945 101.542 27.4645 100.561 27.2416L97.0828 26.479C95.1652 26.042 93.7471 25.3463 92.8284 24.392C91.9187 23.4376 91.4638 22.2291 91.4638 20.7664C91.4638 19.5534 91.8027 18.4921 92.4806 17.5823C93.1584 16.6726 94.0949 15.9635 95.29 15.4552C96.4852 14.9379 97.8542 14.6792 99.3972 14.6792C101.618 14.6792 103.366 15.1608 104.642 16.1241C105.917 17.0784 106.76 18.3583 107.17 19.9637Z" fill="#1A1A1A"/>
<path d="M76.3027 35.9509C75.0006 35.9509 73.8232 35.7101 72.7708 35.2285C71.7184 34.7379 70.8845 34.0289 70.269 33.1013C69.6626 32.1737 69.3593 31.0366 69.3593 29.6898C69.3593 28.5303 69.5823 27.576 70.0282 26.8268C70.4742 26.0776 71.0762 25.4845 71.8343 25.0475C72.5924 24.6105 73.4397 24.2805 74.3762 24.0575C75.3127 23.8345 76.267 23.6651 77.2392 23.5491C78.47 23.4064 79.4689 23.2905 80.236 23.2013C81.003 23.1032 81.5604 22.9471 81.9083 22.733C82.2561 22.519 82.43 22.1711 82.43 21.6895V21.5959C82.43 20.4275 82.1 19.5222 81.44 18.88C80.7889 18.2379 79.8168 17.9168 78.5235 17.9168C77.1768 17.9168 76.1154 18.2156 75.3395 18.8132C74.5724 19.4018 74.0418 20.0573 73.7474 20.7798L69.9881 19.9236C70.434 18.6749 71.0851 17.6671 71.9413 16.9C72.8065 16.1241 73.8009 15.5622 74.9247 15.2144C76.0485 14.8576 77.2303 14.6792 78.47 14.6792C79.2906 14.6792 80.1602 14.7773 81.0788 14.9735C82.0064 15.1608 82.8715 15.5087 83.6742 16.0171C84.4859 16.5254 85.1503 17.2523 85.6676 18.1977C86.1849 19.1342 86.4436 20.3517 86.4436 21.8501V35.496H82.5371V32.6866H82.3765C82.1179 33.2039 81.7299 33.7123 81.2126 34.2117C80.6953 34.7112 80.0308 35.1259 79.2192 35.4559C78.4076 35.7859 77.4354 35.9509 76.3027 35.9509ZM77.1723 32.7401C78.2783 32.7401 79.2237 32.5216 80.0085 32.0845C80.8023 31.6475 81.4044 31.0767 81.8146 30.3721C82.2338 29.6586 82.4434 28.896 82.4434 28.0844V25.4355C82.3007 25.5782 82.0242 25.712 81.6139 25.8368C81.2126 25.9528 80.7533 26.0553 80.236 26.1445C79.7187 26.2248 79.2148 26.3006 78.7242 26.372C78.2337 26.4344 77.8234 26.4879 77.4934 26.5325C76.7174 26.6306 76.0084 26.7956 75.3662 27.0275C74.733 27.2594 74.2246 27.5939 73.8411 28.0309C73.4665 28.459 73.2792 29.0298 73.2792 29.7433C73.2792 30.7333 73.6449 31.4825 74.3762 31.9909C75.1076 32.4904 76.0396 32.7401 77.1723 32.7401Z" fill="#1A1A1A"/>
<path d="M57.0679 35.9108C55.0433 35.9108 53.2996 35.4782 51.8369 34.6131C50.3831 33.739 49.2594 32.5127 48.4656 30.934C47.6807 29.3464 47.2883 27.4868 47.2883 25.3552C47.2883 23.2503 47.6807 21.3952 48.4656 19.7898C49.2594 18.1844 50.3653 16.9313 51.7834 16.0304C53.2105 15.1296 54.8783 14.6792 56.787 14.6792C57.9464 14.6792 59.0702 14.871 60.1583 15.2545C61.2464 15.638 62.223 16.24 63.0882 17.0606C63.9533 17.8811 64.6356 18.9469 65.1351 20.258C65.6345 21.5602 65.8843 23.1433 65.8843 25.0074V26.4255H49.5492V23.4287H61.9644C61.9644 22.3763 61.7503 21.4442 61.3222 20.6326C60.8941 19.8121 60.2921 19.1654 59.5161 18.6927C58.7491 18.22 57.8483 17.9837 56.8137 17.9837C55.6899 17.9837 54.7088 18.2602 53.8705 18.8131C53.041 19.3572 52.3988 20.0707 51.944 20.9537C51.498 21.8278 51.275 22.7776 51.275 23.8033V26.1445C51.275 27.518 51.5159 28.6864 51.9975 29.6497C52.488 30.6129 53.1703 31.3487 54.0444 31.8571C54.9184 32.3566 55.9397 32.6063 57.108 32.6063C57.8661 32.6063 58.5574 32.4993 59.1817 32.2852C59.806 32.0622 60.3456 31.7322 60.8005 31.2952C61.2553 30.8582 61.6032 30.3186 61.844 29.6764L65.6301 30.3587C65.3268 31.4736 64.7828 32.4502 63.9979 33.2886C63.222 34.1181 62.2453 34.7647 61.068 35.2285C59.8997 35.6833 58.5663 35.9108 57.0679 35.9108Z" fill="#1A1A1A"/>
<path d="M15.6974 40.2052C7.02794 40.2052 0 33.1772 0 24.5079C0 15.8385 7.02794 8.81055 15.6974 8.81055C24.3667 8.81055 31.3947 15.8385 31.3947 24.5079C31.3947 33.1772 24.3667 40.2052 15.6974 40.2052ZM23.2636 32.476C25.3713 30.474 26.6855 27.6444 26.6855 24.5079C26.6855 18.4393 21.7659 13.5198 15.6974 13.5198C14.032 13.5198 12.4533 13.8902 11.039 14.5532L12.5692 17.3074C13.5275 16.8904 14.5855 16.6592 15.6974 16.6592C20.032 16.6592 23.546 20.1732 23.546 24.5079H18.8368L23.2636 32.476ZM20.3557 34.4627L18.8255 31.7084C17.8672 32.1254 16.8092 32.3566 15.6974 32.3566C11.3627 32.3566 7.84868 28.8426 7.84868 24.5079H12.5579L8.13112 16.5397C6.02337 18.5418 4.70921 21.3714 4.70921 24.5079C4.70921 30.5765 9.62877 35.496 15.6974 35.496C17.3627 35.496 18.9414 35.1256 20.3557 34.4627Z" fill="#0055CC"/>
</svg>
